<?xml version="1.0" standalone="yes"?>
<svg xmlns="http://www.w3.org/2000/svg" width="387" height="96">
<path style="fill: #005499; stroke:none;" d="M60 6C56.7005 12.2644 52.1392 18.2423 50 25C53.9871 24.9969 57.6677 25.5976 60 22L62 22C64.4307 30.2634 70.3678 37.2205 74 45L76 45C77.367 42.8694 79.0666 40.677 78.9444 37.9985C78.7834 34.4686 75.9649 30.9624 74.2809 28C70.1618 20.7542 65.2977 13.6528 62 6L60 6M188 17L188 70L197 70C197.003 66.2143 197.121 62.694 198 59L200 59C203.487 68.2004 207.737 70 217 70C213.964 63.6106 209.031 58.4069 206 52C210.117 49.8967 213.617 47.5367 215 43C207.273 38.8405 203.201 44.4032 197 49L197 17L188 17M282 45L263 45L263 53L273 53C272.697 62.3078 264.208 63.5497 257.001 59.1458C247.356 53.2525 246.471 40.537 255.043 33.2778C257.512 31.187 260.761 29.7246 264 29.4159C268.688 28.9692 273.406 31.3241 278 32C278.635 29.9758 279.863 27.3818 279.212 25.223C277.331 18.9801 263.786 19.6463 259 20.669C247.1 23.2118 240.301 32.138 239.171 44C237.625 60.2385 251.324 71.9835 267 70.909C271.124 70.6263 277.476 69.582 280.397 66.3511C284.213 62.129 282 50.3948 282 45M109 21C113.696 32.2207 123.007 42.3237 126.362 54C127.791 58.9734 127 64.8688 127 70L136 70C136 65.1628 135.304 59.6939 136.637 55C140 43.1662 149.277 31.8652 155 21C151.817 21 147.337 20.218 144.39 21.6034C142.243 22.6131 141.248 25.0608 140.14 27.0046C137.381 31.8424 134.548 36.6262 133 42L131 42C128.949 36.3637 124.982 25.2479 119.671 22.0278C116.751 20.257 112.274 21 109 21M24 27C26.236 33.1426 30.0478 41.9079 36 45C37.5814 41.4118 38.6758 38.9338 38 35L66 35C64.9737 32.5604 63.9682 29.5276 61.6096 28.0278C58.5642 26.0913 53.4421 27 50 27L24 27M76 27C77.873 30.9918 79.4306 34.2164 84 35C79.4621 42.6948 73.0009 51.2553 71 60C73.535 59.991 76.5088 60.309 78.7901 58.9722C82.176 56.9882 83.9847 52.2667 85.8495 49C89.9742 41.7746 94.7066 34.6429 98 27L76 27M24 70L45 70C43.7825 65.7984 42.5555 62.7831 38 62C41.9348 53.5724 48.3655 45.9563 51 37C48.3768 37.002 44.9062 36.4836 42.6096 38.0278C39.7981 39.9182 38.0761 44.1543 36.4244 47C32.1815 54.3102 26.5517 61.9392 24 70M156 38C156.081 46.9284 159.725 47.9945 168 48C163.766 55.6056 157.725 62.1251 154 70L182 70L182 63L169 63L184 41L163 41L163 38L156 38M331 43C328.092 40.9627 325.502 41.0116 322 41L322 70L330 70C330 64.5427 329.209 58.1187 331.653 53.044C332.743 50.7798 335.723 47.4927 338.397 49.7122C342.181 52.8526 340 65.4668 340 70L349 70C349 64.7487 347.861 57.842 350.318 53.0193C351.371 50.9516 353.897 47.8986 356.567 49.1759C358.631 50.1634 358.832 53.0402 358.956 55.0008C359.269 59.9662 359 65.0247 359 70L368 70C368 62.0948 371.292 44.4503 361.981 40.7423C357.035 38.773 352.82 41.7962 348 41.5671C341.672 41.2664 336.401 37.9391 331 43M285 41C287.135 47.2708 290.292 53.0856 293.247 59C294.618 61.7443 296.702 64.8314 296.728 68C296.77 73.0124 292.879 78.4818 291 83C293.761 82.9997 297.942 83.7193 300.301 81.9722C303.413 79.6679 304.947 73.4452 306.421 70C310.565 60.316 315.003 50.7418 319 41C316.307 41.0021 312.773 40.4927 310.394 42.0278C306.465 44.5622 304.236 52.7095 303 57C300.561 52.8204 298.723 44.6827 294.606 42.0278C292.005 40.3503 287.948 41.0003 285 41M46 51C44.5673 53.3781 42.5418 56.0747 42.6929 59C42.8883 62.784 46.1689 66.8139 48 70C52.0161 76.988 56.2435 83.868 60 91L62 91C64.842 84.4045 69.2214 78.6389 72 72C68.0129 72.0031 64.3323 71.4024 62 75L60 75C57.0766 66.969 51.8621 57.2406 46 51M87 51C84.3756 54.7368 83.1514 57.4399 84 62L56 62C56.9338 64.537 57.946 67.4489 60.3796 68.9722C63.4539 70.8965 68.5364 70 72 70L98 70C95.2227 63.5546 91.5074 56.384 87 51M219 51L219 59L234 59L234 51L219 51z"/>
</svg>
