<?xml version="1.0" standalone="yes"?>
<svg xmlns="http://www.w3.org/2000/svg" width="347" height="246">
<path style="fill: rgba(0,0,0,0);" d="M0 0L0 246L347 246L347 0L0 0z"/>
<path style="fill:#140194;" d="M168 11C161.763 21.1907 153.324 32.4837 150 44C157.362 44 164.493 45.7134 168 38C178.202 51.3798 185.457 67.5133 194 82C197.268 78.8317 201.864 72.8788 201.289 68C200.617 62.3073 195.227 55.8936 192.421 51L178 26C175.02 20.8154 172.427 15.0865 168 11M103 49C106.384 60.5058 115.265 70.0115 120 81L123 81C126.266 73.4211 129.581 70.1286 126 62L177 62C175.391 58.1556 173.317 52.3377 169.621 50.0278C165.19 47.2581 156.067 49 151 49L103 49M197 49C199.58 57.1512 203.272 61.9692 212 62C202.402 75.4401 192.534 91.8359 186 107C190.333 107 197.703 108.416 201.471 105.972C206.239 102.879 209.519 93.8553 212.281 89C219.811 75.763 228.559 62.7961 235 49L197 49M103 125L140 125C137.321 117.641 134.331 112.099 126 112C133.242 96.5069 144.384 82.8065 151 67C146.751 67 140.09 65.7509 136.329 68.0278C131.709 70.8247 129.061 78.5034 126.397 83C121.675 90.9677 117.118 99.0326 112.397 107C108.983 112.76 104.899 118.546 103 125M215 92C211.683 99.6973 207.64 103.568 211 112L160 112C161.609 115.844 163.683 121.662 167.379 123.972C171.81 126.742 180.933 125 186 125L234 125C231.889 117.823 227.158 111.434 223.424 105C220.84 100.546 218.68 95.6296 215 92M142 93C139.682 96.5149 135.468 101.568 135.693 106C135.972 111.499 141.889 118.308 144.579 123C152.239 136.362 159.499 150.153 168 163L170 163C174.735 152.011 183.616 142.506 187 131C179.854 131 172.127 129.191 169 137C163.372 127.804 158.05 118.372 152.719 109C149.586 103.492 146.868 97.1427 142 93M116 162L116 224L126 224C126 219.239 125.892 214.655 127 210L129 210C130.412 214.431 133.597 221.472 138.184 223.397C141.313 224.709 145.67 224 149 224C145.949 215.953 139.057 210.066 136 202C140.254 200.104 143.585 197.143 147 194C139.904 184.486 132.716 193.151 126 199L126 162L116 162M224 194L203 194L203 204L214 204C213.878 214.306 204.21 215.45 196.001 211.312C183.977 205.251 182.358 187.968 193.093 179.8C196.265 177.387 200.047 176.189 204 176.044C209.272 175.85 213.958 177.833 219 179C220.453 175.718 221.476 172.553 222 169C215.34 166.434 209.213 164.714 202 165.039C173.106 166.342 163.484 210.279 191 221.525C198.813 224.718 208.009 224.877 216 222.251C218.922 221.291 222.715 220.055 223.682 216.787C225.643 210.162 224 200.902 224 194M23 166C28.4628 179.052 38.9395 190.566 43.3009 204C45.2428 209.981 44 217.762 44 224L55 224C55 217.674 53.8795 210.12 55.6381 204C59.5094 190.528 70.5797 178.951 76 166C72.3079 166 66.6346 164.958 63.3904 167.028C60.7825 168.691 59.5833 172.368 58.2438 175C55.3724 180.642 51.764 185.877 50 192C46.7637 186.455 43.7816 180.68 40.7809 175C39.3948 172.376 38.2307 168.7 35.6096 167.028C32.3654 164.958 26.6921 166 23 166M78 186C78.0082 196.571 82.0769 197.999 92 198C86.3557 206.365 78.9163 214.69 75 224L108 224L108 215L93 215C98.0332 205.968 105.56 198.344 110 189L86 189L86 186L78 186M280 192C279.096 187.783 274.644 189 271 189L271 224L281 224C281 217.627 279.446 208.835 282.457 203.015C283.687 200.638 286.645 196.998 289.683 198.832C292.041 200.255 291.951 203.623 291.995 206C292.108 211.996 292 218.003 292 224L303 224C303 217.848 301.288 208.605 304.179 203.015C305.428 200.602 308.666 197.02 311.682 198.832C314.042 200.249 313.951 203.626 313.995 206C314.108 211.996 314 218.003 314 224L324 224L324 204C324 200.797 324.458 197.059 323.258 194.015C320.776 187.724 312.661 186.78 307.005 189.005C304.684 189.917 302.901 191.444 301 193C296.56 185.204 286.105 187.708 280 192M228 189C230.066 196.173 234.003 203.271 237.258 210C238.868 213.325 241.697 217.186 241.728 221C241.778 226.915 236.885 233.463 235 239C237.993 239 242.75 239.861 245.301 237.972C248.852 235.343 250.582 227.937 252.281 224C257.22 212.554 263.573 200.987 267 189C264.128 189 259.998 188.314 257.498 190.028C252.759 193.277 250.856 203.088 248 208C245.921 203 243.086 191.909 237.787 189.603C234.961 188.374 231.016 189 228 189M151 201L151 210L169 210L169 201L151 201z"/>
</svg>
